<?xml version="1.0" encoding="utf-8"?>
<!-- Generator: Adobe Illustrator 27.5.0, SVG Export Plug-In . SVG Version: 6.00 Build 0)  -->
<svg version="1.1" id="Layer_1" xmlns="http://www.w3.org/2000/svg" xmlns:xlink="http://www.w3.org/1999/xlink" x="0px" y="0px"
	 viewBox="0 0 4000 4000" style="enable-background:new 0 0 4000 4000;" xml:space="preserve">
<g>
	<g>
		<rect style="fill:#FFFFFF;" width="4000" height="4000"/>
	</g>
	<g>
		<g style="opacity:0.3;">
			<ellipse style="fill:#000072;" cx="2000" cy="3456.23" rx="1189.343" ry="67.566"/>
		</g>
		<g>
			<g>
				<circle style="fill:#000072;" cx="2000" cy="1949.526" r="1363.323"/>
			</g>
			<g>
				<g>
					<g>
						<line style="fill:#4C5A69;" x1="3020.478" y1="1296.903" x2="2723.434" y2="1296.903"/>
						<path style="fill:#78DD52;" d="M3020.479,1316.572h-297.046c-10.864,0-19.67-8.804-19.67-19.668s8.806-19.668,19.67-19.668
							h297.046c10.864,0,19.67,8.804,19.67,19.668S3031.343,1316.572,3020.479,1316.572z"/>
					</g>
					<g>
						<line style="fill:#4C5A69;" x1="2613.2" y1="1296.903" x2="2486.977" y2="1296.903"/>
						<path style="fill:#FCEA0B;" d="M2613.201,1316.572h-126.223c-10.864,0-19.67-8.804-19.67-19.668s8.806-19.668,19.67-19.668
							h126.223c10.864,0,19.67,8.804,19.67,19.668S2624.065,1316.572,2613.201,1316.572z"/>
					</g>
					<g>
						<line style="fill:#4C5A69;" x1="3022.371" y1="1467.413" x2="2776.815" y2="1467.413"/>
						<path style="fill:#FCEA0B;" d="M3022.371,1487.08h-245.557c-10.864,0-19.67-8.804-19.67-19.668s8.806-19.668,19.67-19.668
							h245.557c10.864,0,19.67,8.804,19.67,19.668S3033.235,1487.08,3022.371,1487.08z"/>
					</g>
					<g>
						<line style="fill:#4C5A69;" x1="2686.066" y1="1467.413" x2="2253.675" y2="1467.413"/>
						<path style="fill:#78DD52;" d="M2686.067,1487.08h-432.393c-10.864,0-19.67-8.804-19.67-19.668s8.806-19.668,19.67-19.668
							h432.393c10.864,0,19.67,8.804,19.67,19.668S2696.931,1487.08,2686.067,1487.08z"/>
					</g>
					<g>
						<line style="fill:#4C5A69;" x1="2152.249" y1="1467.413" x2="1938.723" y2="1467.413"/>
						<path style="fill:#24C6FF;" d="M2152.249,1487.08h-213.525c-10.864,0-19.67-8.804-19.67-19.668s8.806-19.668,19.67-19.668
							h213.525c10.864,0,19.67,8.804,19.67,19.668S2163.113,1487.08,2152.249,1487.08z"/>
					</g>
					<g>
						<line style="fill:#4C5A69;" x1="3022.371" y1="1625.886" x2="2531.26" y2="1625.886"/>
						<path style="fill:#FF8B00;" d="M3022.371,1645.552H2531.26c-10.864,0-19.67-8.804-19.67-19.668s8.806-19.668,19.67-19.668
							h491.111c10.864,0,19.67,8.804,19.67,19.668S3033.235,1645.552,3022.371,1645.552z"/>
					</g>
					<g>
						<line style="fill:#4C5A69;" x1="2418.369" y1="1625.886" x2="2295.591" y2="1625.886"/>
						<path style="fill:#FCEA0B;" d="M2418.369,1645.552h-122.778c-10.864,0-19.67-8.804-19.67-19.668s8.806-19.668,19.67-19.668
							h122.778c10.864,0,19.67,8.804,19.67,19.668S2429.233,1645.552,2418.369,1645.552z"/>
					</g>
					<g>
						<line style="fill:#4C5A69;" x1="3033.047" y1="1772.169" x2="2360.438" y2="1772.169"/>
						<path style="fill:#24C6FF;" d="M3033.047,1791.836h-672.61c-10.864,0-19.67-8.804-19.67-19.668s8.806-19.668,19.67-19.668
							h672.61c10.864,0,19.67,8.804,19.67,19.668S3043.911,1791.836,3033.047,1791.836z"/>
					</g>
					<g>
						<line style="fill:#4C5A69;" x1="2269.689" y1="1772.169" x2="2093.529" y2="1772.169"/>
						<path style="fill:#78DD52;" d="M2269.69,1791.836h-176.16c-10.864,0-19.67-8.804-19.67-19.668s8.806-19.668,19.67-19.668
							h176.16c10.864,0,19.67,8.804,19.67,19.668S2280.554,1791.836,2269.69,1791.836z"/>
					</g>
					<g>
						<line style="fill:#4C5A69;" x1="3033.047" y1="1918.452" x2="2616.67" y2="1918.452"/>
						<path style="fill:#78DD52;" d="M3033.047,1938.12H2616.67c-10.864,0-19.67-8.804-19.67-19.668s8.806-19.668,19.67-19.668
							h416.377c10.864,0,19.67,8.804,19.67,19.668S3043.911,1938.12,3033.047,1938.12z"/>
					</g>
					<g>
						<line style="fill:#4C5A69;" x1="2525.921" y1="1918.452" x2="2221.646" y2="1918.452"/>
						<path style="fill:#FCEA0B;" d="M2525.92,1938.12h-304.275c-10.864,0-19.67-8.804-19.67-19.668s8.806-19.668,19.67-19.668
							h304.275c10.864,0,19.67,8.804,19.67,19.668S2536.785,1938.12,2525.92,1938.12z"/>
					</g>
					<g>
						<line style="fill:#4C5A69;" x1="3029.281" y1="2065.107" x2="2851.55" y2="2065.107"/>
						<path style="fill:#FF8B00;" d="M3029.282,2084.775H2851.55c-10.864,0-19.67-8.804-19.67-19.668s8.806-19.668,19.67-19.668
							h177.732c10.864,0,19.67,8.804,19.67,19.668S3040.146,2084.775,3029.282,2084.775z"/>
					</g>
					<g>
						<line style="fill:#4C5A69;" x1="2734.896" y1="2065.107" x2="2445.063" y2="2065.107"/>
						<path style="fill:#24C6FF;" d="M2734.895,2084.775h-289.832c-10.864,0-19.67-8.804-19.67-19.668s8.806-19.668,19.67-19.668
							h289.832c10.864,0,19.67,8.804,19.67,19.668S2745.759,2084.775,2734.895,2084.775z"/>
					</g>
					<g>
						<line style="fill:#4C5A69;" x1="3033.047" y1="2223.208" x2="2670.052" y2="2223.208"/>
						<path style="fill:#FCEA0B;" d="M3033.047,2242.876h-362.996c-10.864,0-19.67-8.804-19.67-19.668s8.806-19.668,19.67-19.668
							h362.996c10.864,0,19.67,8.804,19.67,19.668S3043.911,2242.876,3033.047,2242.876z"/>
					</g>
					<g>
						<line style="fill:#4C5A69;" x1="2571.296" y1="2223.208" x2="2368.445" y2="2223.208"/>
						<path style="fill:#FF8B00;" d="M2571.296,2242.876h-202.852c-10.864,0-19.67-8.804-19.67-19.668s8.806-19.668,19.67-19.668
							h202.852c10.864,0,19.67,8.804,19.67,19.668S2582.161,2242.876,2571.296,2242.876z"/>
					</g>
					<g>
						<line style="fill:#4C5A69;" x1="3033.047" y1="2369.491" x2="2808.844" y2="2369.491"/>
						<path style="fill:#78DD52;" d="M3033.047,2389.16h-224.202c-10.864,0-19.67-8.804-19.67-19.668s8.806-19.668,19.67-19.668
							h224.202c10.864,0,19.67,8.804,19.67,19.668S3043.911,2389.16,3033.047,2389.16z"/>
					</g>
					<g>
						<line style="fill:#4C5A69;" x1="2696.743" y1="2369.491" x2="2589.979" y2="2369.491"/>
						<path style="fill:#78DD52;" d="M2696.743,2389.16h-106.765c-10.864,0-19.67-8.804-19.67-19.668s8.806-19.668,19.67-19.668
							h106.765c10.864,0,19.67,8.804,19.67,19.668S2707.607,2389.16,2696.743,2389.16z"/>
					</g>
				</g>
				<g>
					<line style="fill:#4C5A69;" x1="979.522" y1="2378.968" x2="1276.567" y2="2378.968"/>
					<path style="fill:#78DD52;" d="M1276.567,2398.638H979.521c-10.864,0-19.67-8.804-19.67-19.668s8.806-19.668,19.67-19.668
						h297.046c10.864,0,19.67,8.804,19.67,19.668S1287.432,2398.638,1276.567,2398.638z"/>
				</g>
				<g>
					<line style="fill:#4C5A69;" x1="1386.8" y1="2378.968" x2="1513.023" y2="2378.968"/>
					<path style="fill:#FCEA0B;" d="M1513.022,2398.638h-126.223c-10.864,0-19.67-8.804-19.67-19.668s8.806-19.668,19.67-19.668
						h126.223c10.864,0,19.67,8.804,19.67,19.668S1523.887,2398.638,1513.022,2398.638z"/>
				</g>
				<g>
					<line style="fill:#4C5A69;" x1="977.629" y1="2208.458" x2="1223.185" y2="2208.458"/>
					<path style="fill:#24C6FF;" d="M1223.186,2228.125H977.629c-10.864,0-19.67-8.804-19.67-19.668s8.806-19.668,19.67-19.668
						h245.557c10.864,0,19.67,8.804,19.67,19.668S1234.05,2228.125,1223.186,2228.125z"/>
				</g>
				<g>
					<line style="fill:#4C5A69;" x1="1313.934" y1="2208.458" x2="1746.325" y2="2208.458"/>
					<path style="fill:#78DD52;" d="M1746.326,2228.125h-432.393c-10.864,0-19.67-8.804-19.67-19.668s8.806-19.668,19.67-19.668
						h432.393c10.864,0,19.67,8.804,19.67,19.668S1757.19,2228.125,1746.326,2228.125z"/>
				</g>
				<g>
					<line style="fill:#4C5A69;" x1="1847.751" y1="2208.458" x2="2061.278" y2="2208.458"/>
					<path style="fill:#24C6FF;" d="M2061.277,2228.125h-213.525c-10.864,0-19.67-8.804-19.67-19.668s8.806-19.668,19.67-19.668
						h213.525c10.864,0,19.67,8.804,19.67,19.668S2072.141,2228.125,2061.277,2228.125z"/>
				</g>
				<g>
					<line style="fill:#4C5A69;" x1="977.629" y1="2049.985" x2="1468.741" y2="2049.985"/>
					<path style="fill:#FCEA0B;" d="M1468.74,2069.653H977.629c-10.864,0-19.67-8.804-19.67-19.668s8.806-19.668,19.67-19.668
						h491.111c10.864,0,19.67,8.804,19.67,19.668S1479.604,2069.653,1468.74,2069.653z"/>
				</g>
				<g>
					<line style="fill:#4C5A69;" x1="1581.631" y1="2049.985" x2="1704.409" y2="2049.985"/>
					<path style="fill:#FCEA0B;" d="M1704.409,2069.653h-122.778c-10.864,0-19.67-8.804-19.67-19.668s8.806-19.668,19.67-19.668
						h122.778c10.864,0,19.67,8.804,19.67,19.668S1715.273,2069.653,1704.409,2069.653z"/>
				</g>
				<g>
					<line style="fill:#4C5A69;" x1="966.953" y1="1903.702" x2="1639.562" y2="1903.702"/>
					<path style="fill:#FF8B00;" d="M1639.563,1923.369h-672.61c-10.864,0-19.67-8.804-19.67-19.668s8.806-19.668,19.67-19.668
						h672.61c10.864,0,19.67,8.804,19.67,19.668S1650.427,1923.369,1639.563,1923.369z"/>
				</g>
				<g>
					<line style="fill:#4C5A69;" x1="1730.311" y1="1903.702" x2="1906.471" y2="1903.702"/>
					<path style="fill:#78DD52;" d="M1906.47,1923.369h-176.16c-10.864,0-19.67-8.804-19.67-19.668s8.806-19.668,19.67-19.668
						h176.16c10.864,0,19.67,8.804,19.67,19.668S1917.334,1923.369,1906.47,1923.369z"/>
				</g>
				<g>
					<line style="fill:#4C5A69;" x1="966.953" y1="1757.419" x2="1383.33" y2="1757.419"/>
					<path style="fill:#78DD52;" d="M1383.33,1777.085H966.953c-10.864,0-19.67-8.804-19.67-19.668s8.806-19.668,19.67-19.668
						h416.377c10.864,0,19.67,8.804,19.67,19.668S1394.194,1777.085,1383.33,1777.085z"/>
				</g>
				<g>
					<line style="fill:#4C5A69;" x1="1474.079" y1="1757.419" x2="1778.354" y2="1757.419"/>
					<path style="fill:#FCEA0B;" d="M1778.354,1777.085H1474.08c-10.864,0-19.67-8.804-19.67-19.668s8.806-19.668,19.67-19.668
						h304.275c10.864,0,19.67,8.804,19.67,19.668S1789.219,1777.085,1778.354,1777.085z"/>
				</g>
				<g>
					<line style="fill:#4C5A69;" x1="970.719" y1="1610.764" x2="1148.45" y2="1610.764"/>
					<path style="fill:#FF8B00;" d="M1148.45,1630.435H970.718c-10.864,0-19.67-8.804-19.67-19.668s8.806-19.668,19.67-19.668
						h177.732c10.864,0,19.67,8.804,19.67,19.668S1159.314,1630.435,1148.45,1630.435z"/>
				</g>
				<g>
					<line style="fill:#4C5A69;" x1="1265.104" y1="1610.764" x2="1554.938" y2="1610.764"/>
					<path style="fill:#24C6FF;" d="M1554.937,1630.435h-289.832c-10.864,0-19.67-8.804-19.67-19.668s8.806-19.668,19.67-19.668
						h289.832c10.864,0,19.67,8.804,19.67,19.668S1565.801,1630.435,1554.937,1630.435z"/>
				</g>
				<g>
					<line style="fill:#4C5A69;" x1="966.953" y1="1452.663" x2="1329.948" y2="1452.663"/>
					<path style="fill:#FCEA0B;" d="M1329.949,1472.329H966.953c-10.864,0-19.67-8.804-19.67-19.668s8.806-19.668,19.67-19.668
						h362.996c10.864,0,19.67,8.804,19.67,19.668S1340.813,1472.329,1329.949,1472.329z"/>
				</g>
				<g>
					<line style="fill:#4C5A69;" x1="1428.704" y1="1452.663" x2="1631.555" y2="1452.663"/>
					<path style="fill:#FF8B00;" d="M1631.555,1472.329h-202.852c-10.864,0-19.67-8.804-19.67-19.668s8.806-19.668,19.67-19.668
						h202.852c10.864,0,19.67,8.804,19.67,19.668S1642.419,1472.329,1631.555,1472.329z"/>
				</g>
				<g>
					<line style="fill:#4C5A69;" x1="966.953" y1="1306.38" x2="1191.156" y2="1306.38"/>
					<path style="fill:#78DD52;" d="M1191.155,1326.05H966.953c-10.864,0-19.67-8.804-19.67-19.668s8.806-19.668,19.67-19.668
						h224.202c10.864,0,19.67,8.804,19.67,19.668S1202.019,1326.05,1191.155,1326.05z"/>
				</g>
				<g>
					<line style="fill:#4C5A69;" x1="1303.257" y1="1306.38" x2="1940" y2="1306.38"/>
					<path style="fill:#78DD52;" d="M1940,1326.05h-636.743c-10.864,0-19.67-8.804-19.67-19.668s8.806-19.668,19.67-19.668H1940
						c10.864,0,19.67,8.804,19.67,19.668S1950.864,1326.05,1940,1326.05z"/>
				</g>
				<g>
					<line style="fill:#4C5A69;" x1="1730" y1="1306.38" x2="2010" y2="1306.38"/>
					<path style="fill:#FCEA0B;" d="M2010,1326.05h-280c-10.864,0-19.67-8.804-19.67-19.668s8.806-19.668,19.67-19.668h280
						c10.864,0,19.67,8.804,19.67,19.668S2020.864,1326.05,2010,1326.05z"/>
				</g>
			</g>
			<g>
				<g>
					<path style="fill:#FFFFFF;" d="M1449.679,3324.018c-30.056,42.958-81.369,66.044-133.67,62.584
						c-186.416-12.359-256.019-90.118-273.915-176.53c-4.202-20.416-5.537-41.327-4.894-61.941
						c1.285-38.163,9.541-75.338,19.23-106.876c8.354-26.991,17.747-49.78,24.865-65.5c6.674-14.633,11.37-23.135,11.37-23.135
						c114.391-32.577,195.314,27.831,195.314,27.831l0.84,109.348l10.876-0.593c50.868-2.818,99.956,19.724,130.654,60.359
						C1488.584,3226.633,1477.313,3284.57,1449.679,3324.018z"/>
				</g>
				<g>
					<path style="fill:#88839E;" d="M1170.673,3046.792c-24.717,4.745-66.44,8.453-114.242-5.537
						c8.354-26.991,17.747-49.78,24.865-65.5c27.683,20.367,59.272,40.783,91.255,55.564
						C1179.818,3034.631,1178.533,3045.26,1170.673,3046.792z"/>
				</g>
				<g>
					<path style="fill:#88839E;" d="M1125.44,3183.823c-17.945,9.541-46.715,21.652-83.346,26.25
						c-4.202-20.416-5.537-41.327-4.894-61.941c27.535,8.849,56.948,16.461,85.521,20.367
						C1130.631,3169.586,1132.509,3180.066,1125.44,3183.823z"/>
				</g>
				<g style="opacity:0.3;">
					<path style="fill:#000072;" d="M1243.63,3377.57c0,0,98.488-212.249-67.823-272.63c0,0,160.548-127.017-94.511-129.186
						l11.356-23.111c0,0,109.428-29.805,187.392,23.111l40.623,361.176c0,0-23.393,22.697-15.801,50.012L1243.63,3377.57z"/>
				</g>
				<g>
					<path style="fill:#000072;" d="M1288.232,3107.104c-3.782,0.259-8.618,0.337-13.02,0.488l-13.645,0.366
						c-9.146,0.225-18.372,0.464-27.656,0.854c-9.29,0.366-18.638,0.903-28.083,1.582c-9.482,0.571-18.948,1.597-28.813,2.163
						l-0.117,0.005c-2.043,0.117-3.796-1.445-3.914-3.486c-0.078-1.348,0.579-2.568,1.616-3.281
						c16.619-11.309,35.264-19.312,54.5-25.083c9.626-2.93,19.468-5.112,29.446-6.611c4.988-0.752,10.02-1.27,15.088-1.606
						c5.19-0.234,9.954-0.435,15.771,0.024c9.529,0.757,16.641,9.092,15.884,18.618c-0.686,8.662-7.637,15.327-16.055,15.898
						L1288.232,3107.104z"/>
				</g>
				<g>
					<path style="fill:#000072;" d="M1326.213,3404.243c-3.762,0-7.539-0.122-11.323-0.371
						c-135.391-8.96-225.576-52.866-268.049-130.493c-74.192-135.596,26.34-321.245,30.654-329.077
						c2.227-4.043,5.977-7.031,10.415-8.296c121.248-34.546,206.831,27.935,210.413,30.605c4.336,3.237,6.907,8.315,6.951,13.73
						l0.708,91.343c54.131-0.874,105.454,24.136,138.169,67.422c66.992,88.638,47.681,154.888,19.68,194.858
						C1433.013,3377.964,1381.055,3404.243,1326.213,3404.243z M1104.521,2967.368c-16.323,32.681-85.349,183.501-27.275,289.487
						c36.445,66.514,117.17,104.36,239.929,112.485c46.902,3.076,92.275-18.057,118.313-55.229
						c31.138-44.448,24.763-96.309-18.945-154.136c-27.207-35.996-70.549-56.04-115.889-53.491l-10.881,0.601
						c-4.741,0.298-9.351-1.416-12.798-4.663c-3.45-3.237-5.422-7.749-5.459-12.48l-0.774-100.122
						C1250.566,2977.529,1188.193,2946.211,1104.521,2967.368z"/>
				</g>
			</g>
			<g>
				<g>
					<path style="fill:#FFFFFF;" d="M2553.741,3324.018c30.056,42.958,81.369,66.044,133.67,62.584
						c186.416-12.359,256.019-90.118,273.915-176.53c4.202-20.416,5.537-41.327,4.894-61.941
						c-1.285-38.163-9.541-75.338-19.23-106.876c-8.354-26.991-17.747-49.78-24.865-65.5c-6.674-14.633-11.37-23.135-11.37-23.135
						c-114.391-32.577-195.314,27.831-195.314,27.831l-0.84,109.348l-10.876-0.593c-50.868-2.818-99.956,19.724-130.654,60.359
						C2514.836,3226.633,2526.108,3284.57,2553.741,3324.018z"/>
				</g>
				<g>
					<path style="fill:#88839E;" d="M2832.747,3046.792c24.717,4.745,66.44,8.453,114.242-5.537
						c-8.354-26.991-17.747-49.78-24.865-65.5c-27.683,20.367-59.272,40.783-91.256,55.564
						C2823.602,3034.631,2824.888,3045.26,2832.747,3046.792z"/>
				</g>
				<g>
					<path style="fill:#88839E;" d="M2877.98,3183.823c17.945,9.541,46.715,21.652,83.346,26.25
						c4.202-20.416,5.537-41.327,4.894-61.941c-27.535,8.849-56.948,16.461-85.521,20.367
						C2872.789,3169.586,2870.911,3180.066,2877.98,3183.823z"/>
				</g>
				<g style="opacity:0.3;">
					<path style="fill:#000072;" d="M2966.219,3148.132c-1.285-38.163-9.541-75.338-19.23-106.876
						c-8.354-26.991-17.747-49.78-24.865-65.5c-6.674-14.633-11.37-23.135-11.37-23.135c-1.977-0.563-3.919-1.033-5.875-1.541
						c4.144,10.749,8.417,22.769,12.45,35.799c9.689,31.539,17.945,68.713,19.23,106.877c0.643,20.614-0.692,41.524-4.894,61.941
						c-17.895,86.411-87.499,164.171-273.915,176.529c-46.664,3.087-92.496-15.005-123.19-49.441
						c3.878,15.47,10.761,29.216,19.181,41.235c30.056,42.958,81.369,66.044,133.67,62.584
						c186.416-12.359,256.019-90.118,273.915-176.53C2965.528,3189.656,2966.862,3168.746,2966.219,3148.132z"/>
				</g>
				<g>
					<path style="fill:#000072;" d="M2714.016,3072.52c5.818-0.459,10.581-0.259,15.771-0.024c5.068,0.337,10.1,0.854,15.088,1.606
						c9.978,1.499,19.817,3.682,29.446,6.611c19.236,5.771,37.881,13.774,54.5,25.083c1.692,1.152,2.131,3.462,0.979,5.151
						c-0.757,1.118-2.017,1.689-3.271,1.616l-0.122-0.005c-9.866-0.566-19.331-1.592-28.816-2.163
						c-9.443-0.679-18.792-1.216-28.083-1.582c-9.282-0.391-18.508-0.63-27.654-0.854l-13.645-0.366
						c-4.402-0.151-9.238-0.229-13.02-0.488l-0.999-0.068c-9.534-0.659-16.729-8.921-16.072-18.457
						C2698.716,3079.912,2705.605,3073.179,2714.016,3072.52z"/>
				</g>
				<g>
					<path style="fill:#000072;" d="M2677.207,3404.243c-54.846,0-106.797-26.279-137.62-70.278
						c-27.998-39.971-47.312-106.221,19.683-194.858c32.712-43.276,83.967-67.935,138.169-67.422l0.706-91.343
						c0.042-5.415,2.615-10.493,6.951-13.73c3.584-2.676,89.17-65.117,210.415-30.605c4.438,1.265,8.188,4.253,10.415,8.296
						c4.314,7.832,104.846,193.481,30.654,329.077c-42.473,77.627-132.659,121.533-268.049,130.493
						C2684.749,3404.121,2680.967,3404.243,2677.207,3404.243z M2695.154,3106.274c-42.559,0-82.595,19.722-108.276,53.701
						c-43.711,57.827-50.085,109.688-18.948,154.136c26.038,37.168,71.328,58.286,118.315,55.229
						c122.759-8.125,203.484-45.972,239.929-112.485c58.074-105.986-10.952-256.807-27.275-289.487
						c-83.621-21.147-145.989,10.132-166.221,22.451l-0.774,100.122c-0.037,4.731-2.009,9.243-5.459,12.48
						c-3.447,3.237-8.054,4.951-12.798,4.663l-10.881-0.601C2700.222,3106.343,2697.683,3106.274,2695.154,3106.274z"/>
				</g>
			</g>
			<g>
				<g>
					<path style="fill:#FF0660;" d="M1385.019,2450.466c0,0-217.687,286.853-292.368,502.178c0,0,174.785-52.149,276.478,110.983
						l179.552-524.885L1385.019,2450.466z"/>
				</g>
				<g style="opacity:0.3;">
					<path style="fill:#000072;" d="M1466.212,2494.26l-46.563,192.201c-28.651,118.262-136.041,202.243-257.624,197.322
						c-15.47-0.626-29.877,0.17-42.666,1.666c-10.111,22.881-19.151,45.408-26.708,67.195c0,0,174.785-52.149,276.478,110.983
						l179.552-524.885L1466.212,2494.26z"/>
				</g>
				<g>
					<path style="fill:#000072;" d="M1369.124,3080.933c-5.923,0-11.497-3.047-14.678-8.154
						c-93.247-149.59-250.244-105.493-256.882-103.54c-6.226,1.816-12.949,0.024-17.419-4.658c-4.47-4.692-5.962-11.479-3.84-17.603
						c74.724-215.449,285.977-495.166,294.934-506.968c5.156-6.797,14.495-8.809,21.995-4.771l163.662,88.276
						c7.446,4.019,10.896,12.827,8.157,20.83l-179.553,524.883c-2.161,6.318-7.766,10.83-14.404,11.587
						C1370.437,3080.894,1369.778,3080.933,1369.124,3080.933z M1156.851,2927.832c58.352,0,142.439,16.763,206.892,98.086
						l163.823-478.901l-137.595-74.219c-39.329,53.354-199.414,275.942-270.537,457.324
						C1129.941,2928.823,1142.629,2927.832,1156.851,2927.832z"/>
				</g>
			</g>
			<g>
				<g>
					<path style="fill:#FF0660;" d="M2618.401,2450.466c0,0,217.687,286.853,292.368,502.178c0,0-174.785-52.149-276.478,110.983
						l-179.552-524.885L2618.401,2450.466z"/>
				</g>
				<g style="opacity:0.3;">
					<path style="fill:#000072;" d="M2537.208,2494.26l46.563,192.201c28.65,118.262,136.04,202.243,257.624,197.322
						c15.47-0.626,29.877,0.17,42.666,1.666c10.111,22.881,19.151,45.408,26.708,67.195c0,0-174.785-52.149-276.478,110.983
						l-179.552-524.885L2537.208,2494.26z"/>
				</g>
				<g>
					<path style="fill:#000072;" d="M2634.294,3080.933c-0.654,0-1.311-0.039-1.973-0.117c-6.636-0.757-12.241-5.269-14.402-11.587
						l-179.551-524.883c-2.739-8.003,0.71-16.812,8.157-20.83l163.662-88.276c7.5-4.053,16.838-2.031,21.995,4.771
						c8.958,11.802,220.21,291.519,294.934,506.968c2.126,6.133,0.642,12.939-3.848,17.632c-4.487,4.692-11.23,6.475-17.446,4.619
						c-6.606-1.938-163.604-46.03-256.851,103.555C2645.791,3077.886,2640.217,3080.933,2634.294,3080.933z M2475.854,2547.017
						l163.821,478.901c80.159-101.138,190.676-102.412,244.312-95.796c-71.123-181.387-231.208-403.97-270.537-457.324
						L2475.854,2547.017z"/>
				</g>
			</g>
			<g>
				<g>
					<path style="fill:#88839E;" d="M1463.5,2096.762c0,0-192.886,19.319-188.119,214.76s214.509,300.313,386.116,214.509
						C1661.497,2526.031,1417.514,2445.552,1463.5,2096.762z"/>
				</g>
				<g style="opacity:0.6;">
					<path style="fill:#FFFFFF;" d="M1305.042,2331.296c-3.52-144.318,100.721-192.594,155.503-207.979
						c0.812-8.688,1.763-17.509,2.956-26.554c0,0-192.886,19.318-188.12,214.76c2.318,95.057,53.132,168.677,124.456,209.367
						C1344.459,2478.138,1307.024,2412.557,1305.042,2331.296z"/>
				</g>
				<g>
					<path style="fill:#000072;" d="M1534.187,2573.784c-51.785,0-102.974-13.745-148.42-41.069
						c-78.879-47.432-125.417-127.896-127.683-220.771c-5.098-209.063,201.604-232.188,203.694-232.397
						c5.269-0.522,10.469,1.382,14.148,5.176s5.42,9.063,4.729,14.302c-18.284,138.677,7.441,249.854,76.465,330.435
						c51.445,60.059,109.263,79.961,109.839,80.156c6.628,2.222,11.289,8.228,11.777,15.2s-3.247,13.564-9.502,16.689
						C1626.128,2563.062,1579.924,2573.784,1534.187,2573.784z M1443.647,2117.915c-47.244,11.245-154.404,52.314-150.969,193.188
						c1.97,80.786,42.4,150.752,110.92,191.953c64.827,38.979,143.076,46.509,215.396,22.012
						c-23.933-13.594-56.191-36.226-86.812-71.543C1481.692,2395.298,1426.65,2290.469,1443.647,2117.915z"/>
				</g>
			</g>
			<g>
				<g>
					<path style="fill:#88839E;" d="M2539.92,2096.762c0,0,192.886,19.319,188.119,214.76
						c-4.767,195.441-214.509,300.313-386.116,214.509C2341.923,2526.031,2585.906,2445.552,2539.92,2096.762z"/>
				</g>
				<g style="opacity:0.6;">
					<g>
						<path style="fill:#FFFFFF;" d="M2539.919,2087.285c1.866,14.157,3.208,27.828,4.156,41.114
							c48.059,10.585,173.606,53.406,169.749,211.554c-0.551,22.593-3.872,43.958-9.526,63.976
							c14.321-30.152,22.824-64.338,23.741-101.883C2732.805,2106.604,2539.919,2087.285,2539.919,2087.285z"/>
					</g>
					<g>
						<path style="fill:#FFFFFF;" d="M2511.62,2347.76c-57.991,131.909-169.697,168.793-169.697,168.793
							c10.812,5.407,21.777,10.052,32.831,13.969C2418.061,2502.873,2480.179,2447.755,2511.62,2347.76z"/>
					</g>
				</g>
				<g style="opacity:0.3;">
					<path style="fill:#000072;" d="M2670.715,2157.787c5.567,20.306,8.531,43.393,7.889,69.698
						c-3.538,145.043-119.972,240.174-249.926,244.536c-45.428,40.354-86.756,54.011-86.756,54.011
						c171.607,85.803,381.349-19.068,386.116-214.509C2729.825,2238.309,2703.873,2189.813,2670.715,2157.787z"/>
				</g>
				<g>
					<path style="fill:#000072;" d="M2469.233,2573.784c-45.742,0-91.936-10.723-135.046-32.28
						c-6.27-3.135-10.027-9.736-9.519-16.729c0.508-6.987,5.181-12.983,11.836-15.176c0.535-0.181,58.352-20.083,109.797-80.142
						c69.023-80.581,94.749-191.758,76.465-330.435c-0.691-5.239,1.05-10.508,4.729-14.302c3.682-3.794,8.901-5.703,14.148-5.176
						c2.09,0.21,208.792,23.335,203.694,232.397c-2.266,92.876-48.804,173.34-127.683,220.771
						C2572.212,2560.039,2521.013,2573.784,2469.233,2573.784z M2384.426,2525.068c72.324,24.497,150.569,16.982,215.396-22.012
						c68.521-41.201,108.95-111.167,110.92-191.953c3.435-140.874-103.726-181.943-150.969-193.188
						c16.997,172.554-38.044,277.383-88.535,335.61C2440.618,2488.843,2408.359,2511.475,2384.426,2525.068z"/>
				</g>
			</g>
			<g>
				<g>
					<path style="fill:#FFFFFF;" d="M2170.681,1430.395c0,0-12.369-321.445,240.878-506.26
						c25.002-18.246,60.595-3.803,66.175,26.641c24.156,131.799,54.527,441.997-160.236,568.633
						C2317.498,1519.409,2179.344,1593.21,2170.681,1430.395z"/>
				</g>
				<g>
					<path style="fill:#F4A2CB;" d="M2244.455,1361.814c0,0-4.451-217.54,149.166-327.738c12.25-8.788,29.455-1.853,31.986,13.009
						c13.02,76.472,34.433,279.452-85.774,360.917c-9.296,6.3-19.629,11.039-30.558,13.617
						C2284.925,1427.362,2247.837,1425.382,2244.455,1361.814z"/>
				</g>
				<g style="opacity:0.3;">
					<path style="fill:#000072;" d="M2477.734,950.776c-3.4-18.553-17.958-31.106-34.462-33.997
						c22.123,144.169,34.379,420.612-165.321,538.366c0,0-59.973,32.026-103.369,7.311c24.28,120.303,142.916,56.953,142.916,56.953
						C2532.261,1392.773,2501.889,1082.575,2477.734,950.776z"/>
				</g>
				<g>
					<path style="fill:#000072;" d="M2252.48,1553.354c-15.513,0-31.699-3.003-46.619-11.416
						c-31.86-17.969-49.509-55.186-52.458-110.625c-0.005-0.083-0.007-0.166-0.012-0.254c-0.129-3.389-2.861-84.248,26.084-189.092
						c26.792-97.051,87.036-233.398,221.885-331.807c16.511-12.046,37.747-14.697,56.812-7.104
						c19.189,7.656,32.866,24.326,36.582,44.6c24.233,132.231,56.333,454.102-168.467,586.655c-0.21,0.127-0.422,0.244-0.637,0.356
						C2323.679,1535.723,2290.063,1553.354,2252.48,1553.354z M2187.966,1429.629c2.297,42.7,14.006,70.327,34.805,82.119
						c33.154,18.789,82.251-5.391,86.338-7.48c205.554-121.636,174.517-425.371,151.606-550.371
						c-1.58-8.618-7.18-15.43-15.364-18.696c-8.054-3.203-16.658-2.153-23.591,2.91
						C2180.352,1114.282,2187.742,1422.549,2187.966,1429.629z"/>
				</g>
			</g>
			<g>
				<g>
					<path style="fill:#FFFFFF;" d="M1834.667,1400.483c0,0-85.841-310.018-383.257-409.189
						c-29.362-9.791-58.888,14.78-54.958,45.481c17.014,132.909,82.288,437.679,325.367,493.108
						C1721.819,1529.883,1875.861,1558.239,1834.667,1400.483z"/>
				</g>
				<g>
					<path style="fill:#F4A2CB;" d="M1748.259,1361.091c0,0-64.032-216.052-250.271-276.469
						c-14.851-4.818-29.647,7.436-27.469,22.897c11.206,79.552,53.922,286.572,198.157,329.146
						c11.154,3.292,22.84,4.719,34.436,3.825C1728.944,1438.498,1764.916,1424.879,1748.259,1361.091z"/>
				</g>
				<g style="opacity:0.3;">
					<path style="fill:#000072;" d="M1834.667,1400.483c0,0-85.841-310.017-383.256-409.189
						c-13.194-4.399-26.393-1.822-36.603,5.093c239.374,95.639,336.835,332.69,336.835,332.69
						c59.765,151.697-96.563,141.967-96.563,141.967c-28.644-2.999-55.306-9.623-80.155-19.128
						c39.807,36.581,88.144,64.57,146.895,77.967C1721.819,1529.883,1875.861,1558.239,1834.667,1400.483z"/>
				</g>
				<g>
					<path style="fill:#000072;" d="M1747.439,1549.155c-16.025,0-27.561-2.036-28.752-2.256c-0.239-0.044-0.476-0.093-0.715-0.146
						c-254.438-58.022-321.611-374.438-338.682-507.783c-2.615-20.439,5.349-40.479,21.306-53.599
						c15.852-13.037,36.89-16.968,56.287-10.488c158.367,52.803,257.175,164.414,312.178,248.74
						c59.421,91.104,81.375,168.975,82.28,172.241c0.022,0.083,0.044,0.166,0.066,0.249c14.026,53.711,8.516,94.536-16.382,121.328
						C1810.439,1543.901,1773.159,1549.155,1747.439,1549.155z M1725.222,1512.91c4.326,0.698,58.591,8.921,84.521-19.097
						c16.235-17.549,18.999-47.427,8.223-88.804c-1.98-6.924-89.094-302.959-372.031-397.305
						c-8.145-2.705-16.663-1.113-23.364,4.395c-6.804,5.596-10.068,13.789-8.955,22.476
						C1429.751,1160.64,1492.4,1459.473,1725.222,1512.91z"/>
				</g>
			</g>
			<g>
				<path style="fill:#FFFFFF;" d="M2541.828,2153.912c0,0-197.588,144.891-540.118,144.891s-540.118-144.891-540.118-144.891
					s-0.049-1.879,0-5.438c0,0,0,0,0-0.05c0.148-22.196,2.076-109.052,22.641-216.076c5.091-26.546,11.37-54.328,19.032-82.654
					c9.492-35.395,21.257-71.68,35.741-107.569c11.073-27.485,23.728-54.723,38.213-81.072
					c58.332-106.234,145.979-198.528,277.82-237.976c43.848-13.149,92.541-20.416,146.671-20.416
					C2551.863,1402.661,2541.828,2153.912,2541.828,2153.912z"/>
			</g>
			<g>
				<path style="fill:#88839E;" d="M1690.324,1799.816c-32.972-0.791-94.024-9.64-151.318-57.69
					c11.073-27.485,23.728-54.723,38.213-81.072c27.485,36.383,70.691,88.042,118.246,124.08
					C1701.843,1789.929,1698.333,1800.013,1690.324,1799.816z"/>
			</g>
			<g>
				<path style="fill:#88839E;" d="M1608.115,1959.241c-27.288,1.433-74.102-1.236-123.882-26.892
					c5.091-26.546,11.37-54.328,19.032-82.654c29.265,31.292,68.021,68.17,108.854,94.518
					C1618.843,1948.513,1616.124,1958.845,1608.115,1959.241z"/>
			</g>
			<g>
				<path style="fill:#88839E;" d="M2313.096,1799.816c32.972-0.791,94.024-9.64,151.318-57.69
					c-11.073-27.485-23.728-54.723-38.213-81.072c-27.485,36.383-70.691,88.042-118.246,124.08
					C2301.577,1789.929,2305.087,1800.013,2313.096,1799.816z"/>
			</g>
			<g>
				<path style="fill:#88839E;" d="M2395.305,1959.241c27.288,1.433,74.102-1.236,123.882-26.892
					c-5.092-26.546-11.37-54.328-19.032-82.654c-29.265,31.292-68.021,68.17-108.854,94.518
					C2384.578,1948.513,2387.296,1958.845,2395.305,1959.241z"/>
			</g>
			<g style="opacity:0.3;">
				<path style="fill:#000072;" d="M2541.828,2153.912c0,0-197.588,144.891-540.118,144.891s-540.118-144.891-540.118-144.891
					s-0.049-1.879,0-5.438c0,0,0,0,0-0.05c1.091-3.89,59.876-199.623,483.896-97.195c34.949,8.443,71.45,7.692,106-2.261
					c40.085-11.547,100.536-25.544,168.869-29.765c142.716-8.849,232.538-157.102,172.921-287.064
					c-38.736-84.458-95.796-166.139-179.531-216.108c-17.637-10.525-39.947-9.725-56.746,2.091
					c-24.402,17.163-71.139,39.071-150.769,39.123c-22.489,0.015-42.358-14.994-48.235-36.7
					c-8.216-30.343-32.55-73.275-102.959-97.468c43.848-13.149,92.541-20.416,146.671-20.416
					C2551.863,1402.661,2541.828,2153.912,2541.828,2153.912z"/>
			</g>
			<g>
				<g>
					<ellipse style="fill:#000072;" cx="1815.01" cy="1901.033" rx="75.623" ry="103.459"/>
				</g>
				<g>
					<ellipse style="fill:#FFFFFF;" cx="1828.66" cy="1915.607" rx="24.449" ry="33.449"/>
				</g>
			</g>
			<g>
				<path style="fill:#000072;" d="M1877.671,1753.765c-1.023-1.226-2.817-3.765-4.343-5.767c-1.565-2.163-3.245-4.272-4.897-6.445
					c-1.621-2.173-3.459-4.209-5.093-6.411c-1.755-2.095-3.601-4.111-5.308-6.284c-7.275-8.208-15.017-16.128-23.818-22.949
					c-4.336-3.56-9.045-6.489-13.821-9.639c-5.012-2.432-9.902-5.762-15.361-7.632c-10.635-5.024-22.329-7.461-34.7-10.137
					l-0.31-0.068c-1.843-0.396-3.015-2.212-2.617-4.058c0.283-1.304,1.277-2.271,2.483-2.583c12.617-3.262,26.24-5.347,39.946-3.989
					c6.936,0.244,13.669,1.841,20.576,3.218c6.611,2.07,13.545,3.857,19.875,6.934c12.915,5.64,25.232,13.086,35.796,22.476
					c5.269,4.697,10.271,9.717,14.722,15.234c2.278,2.715,4.39,5.586,6.406,8.564c2.087,3.115,3.733,5.82,5.862,10.01
					c5.032,9.893,1.091,21.992-8.801,27.021c-8.511,4.326-18.652,2.017-24.524-5.01L1877.671,1753.765z"/>
			</g>
			<g>
				<path style="fill:#000072;" d="M2090.352,1734.238c2.129-4.189,3.774-6.895,5.862-10.01c2.017-2.979,4.128-5.85,6.406-8.564
					c4.451-5.518,9.453-10.537,14.722-15.234c10.564-9.39,22.881-16.836,35.796-22.476c6.331-3.076,13.264-4.863,19.875-6.934
					c6.907-1.377,13.64-2.974,20.576-3.218c13.706-1.357,27.329,0.728,39.944,3.989c1.826,0.469,2.925,2.334,2.454,4.16
					c-0.334,1.289-1.362,2.217-2.581,2.48l-0.315,0.068c-12.371,2.676-24.067,5.112-34.7,10.137
					c-5.459,1.87-10.352,5.2-15.361,7.632c-4.775,3.149-9.485,6.079-13.821,9.639c-8.801,6.821-16.543,14.741-23.818,22.949
					c-1.707,2.173-3.555,4.189-5.308,6.284c-1.633,2.202-3.474,4.238-5.093,6.411c-1.653,2.173-3.333,4.282-4.897,6.445
					c-1.528,2.002-3.32,4.541-4.343,5.767l-2.068,2.471c-7.119,8.516-19.792,9.648-28.308,2.529
					C2088.049,1752.642,2086.196,1742.397,2090.352,1734.238z"/>
			</g>
			<g>
				<path style="fill:#000072;" d="M2001.709,2316.108c-344.214,0-542.083-142.188-550.337-148.237
					c-4.377-3.213-6.997-8.296-7.068-13.726c-0.225-16.733-2.991-412.31,212.517-630.713
					c90.42-91.631,206.455-138.091,344.888-138.091s254.47,46.46,344.89,138.096c215.508,218.403,212.742,613.975,212.517,630.708
					c-0.071,5.43-2.69,10.513-7.068,13.726C2543.794,2173.921,2345.925,2316.108,2001.709,2316.108z M1478.962,2144.785
					c37.996,24.814,225.908,136.724,522.747,136.724c297.507,0,484.829-111.855,522.751-136.704
					c-0.913-59.863-14.465-406.606-202.578-597.148c-83.662-84.746-191.384-127.715-320.173-127.715
					c-128.787,0-236.509,42.969-320.171,127.715C1493.438,1738.184,1479.873,2084.893,1478.962,2144.785z"/>
			</g>
			<g>
				<g>
					<path style="fill:#88839E;" d="M2001.71,2599.653c410.303,0,644.763-80.507,568.493-379.23
						c-51.082-200.071-288.748-176.812-440.154-139.629c-84.345,20.714-172.333,20.714-256.677,0
						c-151.406-37.183-389.072-60.442-440.154,139.629C1356.948,2519.146,1591.407,2599.653,2001.71,2599.653z"/>
				</g>
				<g style="opacity:0.3;">
					<path style="fill:#000072;" d="M2570.203,2220.423c-18.478-72.373-61.379-115.508-115.772-139.347
						c4.693,10.98,8.709,22.8,11.961,35.535c76.27,298.723-158.189,379.23-568.493,379.23c-199.864,0-357.978-19.118-458.804-73.24
						c62.522,135.213,266.881,177.051,562.615,177.051C2412.013,2599.653,2646.473,2519.146,2570.203,2220.423z"/>
				</g>
				<g style="opacity:0.6;">
					<path style="fill:#FFFFFF;" d="M2570.203,2220.423c-51.084-200.08-288.769-176.81-440.173-139.625
						c-84.33,20.712-172.309,20.712-256.639,0c-151.405-37.186-389.089-60.455-440.173,139.625
						c-19.575,76.668-18.632,138.929,0.448,189.177c-8.632-43.485-5.867-94.625,9.439-154.573
						c22.679-88.828,82.148-133.612,154.508-152.719c5.226-1.38,10.724-0.58,15.574,1.805c16.119,7.925,46.639,12.835,81.596,12.026
						c35.43-0.82,66.032-7.298,81.579-16.141c4.265-2.426,9.193-3.401,14.051-2.717c32.791,4.615,64.347,11.118,92.845,18.117
						c84.345,20.714,172.333,20.714,256.677,0c145.304-35.684,370.023-58.506,433.055,116.552
						C2572.103,2228.136,2571.195,2224.309,2570.203,2220.423z"/>
				</g>
				<g>
					<g>
						
							<ellipse transform="matrix(0.2298 -0.9732 0.9732 0.2298 -803.4491 3413.9907)" style="fill:#000072;" cx="1755.157" cy="2214.596" rx="41.313" ry="41.313"/>
					</g>
					<g>
						
							<ellipse transform="matrix(0.7071 -0.7071 0.7071 0.7071 -907.4551 2238.4021)" style="fill:#000072;" cx="2248.263" cy="2214.596" rx="41.313" ry="41.313"/>
					</g>
					<g>
						<path style="fill:#000072;" d="M1706.123,2170.654c9.521-8.447,20.981-13.604,34.131-15.996
							c13.008-2.261,28.242-0.425,41.489,6.924c13.357,7.173,23.462,19.097,29.346,31.377c6.064,12.363,8.799,25.186,8.499,37.627
							c-0.237,9.746-8.33,17.456-18.076,17.222c-6.948-0.171-12.859-4.331-15.598-10.234l-0.378-0.83
							c-4.263-9.243-7.532-17.905-11.426-25.278c-3.853-7.446-7.793-13.55-13.022-18.447c-5.164-4.951-12.192-8.853-21.201-11.294
							c-8.916-2.559-19.543-3.438-30.5-3.691l-0.564-0.015c-2.327-0.054-4.167-1.982-4.114-4.312
							C1704.734,2172.495,1705.283,2171.401,1706.123,2170.654z"/>
					</g>
					<g>
						<path style="fill:#000072;" d="M2294.036,2178.032c-10.957,0.254-21.584,1.133-30.5,3.691
							c-9.009,2.441-16.038,6.343-21.201,11.294c-5.229,4.897-9.17,11.001-13.022,18.447c-3.894,7.373-7.163,16.035-11.426,25.278
							l-0.376,0.811c-4.082,8.853-14.57,12.72-23.423,8.633c-6.311-2.91-10.083-9.097-10.254-15.601
							c-0.3-12.441,2.434-25.264,8.499-37.627c5.884-12.28,15.989-24.204,29.343-31.377c13.25-7.349,28.484-9.185,41.492-6.924
							c13.149,2.393,24.609,7.549,34.131,15.996c1.741,1.543,1.899,4.209,0.356,5.947c-0.806,0.908-1.917,1.387-3.04,1.416
							L2294.036,2178.032z"/>
					</g>
				</g>
				<g>
					<path style="fill:#000072;" d="M2042.817,2464.629c23.208-6.172,45.667-11.138,67.546-17.676
						c21.838-6.396,43.34-12.993,63.691-22.119c20.457-8.774,39.917-19.424,57.922-31.978c18.167-12.368,34.8-26.641,50.754-41.978
						l0.376-0.361c6.895-6.631,17.859-6.416,24.487,0.479c6.111,6.357,6.401,16.177,1.006,22.866
						c-15.652,19.443-34.438,36.411-54.993,50.654c-5.264,3.364-10.415,6.938-15.825,10.044c-5.461,3.013-10.876,6.108-16.384,9.023
						l-16.97,7.739c-5.708,2.427-11.521,4.575-17.307,6.763c-23.394,8.018-47.351,14.053-71.689,16.265
						c-24.292,2.192-48.799,1.382-72.549-3.95c-1.599-0.361-2.605-1.948-2.244-3.545c0.249-1.113,1.096-1.938,2.126-2.217
						L2042.817,2464.629z"/>
				</g>
				<g>
					<path style="fill:#FF4390;" d="M2154.907,2450.466c0,0,20.617-53.935,23-112.726s109.197-88.981,117.759,24.629
						C2295.667,2362.369,2263.79,2417.009,2154.907,2450.466z"/>
				</g>
				<g style="opacity:0.3;">
					<path style="fill:#000072;" d="M2202.761,2295.736c12.694,1.562,25.063,7.813,34.743,20.113
						c21.193,26.927,15.418,66.117-11.004,87.936c-15.52,12.816-38.061,27.787-69.704,41.402c-1.175,3.41-1.889,5.28-1.889,5.28
						c108.883-33.458,140.76-88.097,140.76-88.097C2289.67,2282.804,2235.517,2273.813,2202.761,2295.736z"/>
				</g>
				<g>
					<path style="fill:#000072;" d="M2154.912,2465.298c-4.041,0-7.981-1.655-10.83-4.697c-3.872-4.136-5.049-10.122-3.03-15.42
						c0.198-0.518,19.788-52.515,22.039-108.042c1.46-36.05,33.547-65.913,71.528-66.572c0.396-0.005,0.796-0.01,1.194-0.01
						c33.01,0,69.597,23.76,74.641,90.698c0.227,2.998-0.464,5.991-1.978,8.584c-1.421,2.437-36.094,60.044-149.214,94.805
						C2157.832,2465.083,2156.365,2465.298,2154.912,2465.298z M2235.842,2300.22c-0.237,0-0.471,0-0.71,0.005
						c-19.746,0.342-41.499,15.742-42.407,38.115c-1.382,34.136-8.55,66.392-14.695,88.438
						c65.613-25.469,94.302-57.817,102.375-68.433C2276.394,2321.772,2259.963,2300.22,2235.842,2300.22z"/>
				</g>
				<g>
					<path style="fill:#000072;" d="M2001.709,2616.953c-304.299,0-474.849-44.858-552.986-145.454
						c-49.36-63.545-59.917-147.075-32.271-255.356c41.118-161.03,204.856-215.059,461.045-152.153
						c81.257,19.961,167.163,19.961,248.425,0c256.177-62.915,419.927-8.882,461.045,152.153
						c27.646,108.281,17.09,191.812-32.271,255.356C2476.558,2572.095,2306.011,2616.953,2001.709,2616.953z M1688.635,2073.164
						c-23.774,0-47.405,1.641-70.034,5.527c-91.145,15.649-147.878,64.775-168.618,146.016
						c-24.827,97.236-16.301,171.021,26.067,225.562c69.995,90.112,237.026,132.085,525.659,132.085s455.667-41.973,525.662-132.085
						c42.368-54.541,50.894-128.325,26.067-225.562c-20.74-81.24-77.473-130.366-168.618-146.016
						c-84.475-14.512-182.93,2.275-250.645,18.901c-86.66,21.294-178.274,21.284-264.929,0
						C1819.67,2085.42,1753.616,2073.164,1688.635,2073.164z"/>
				</g>
			</g>
			<g>
				<g>
					<path style="fill:#88839E;" d="M2001.71,1514.927c0,0-20.515-115.527-163.133-96.94c0,0,0.05,0,0.099-0.05v-0.049
						c3.856-3.807,127.244-127.441,163.034-290.129c0,0,96.743,33.368,72.915,193.831c0,0,0,0,0.049-0.05
						c2.719-0.791,89.179-27.881,119.779-85.719C2194.454,1235.821,2260.893,1514.927,2001.71,1514.927z"/>
				</g>
				<g style="opacity:0.3;">
					<path style="fill:#000072;" d="M2001.71,1514.927c0,0-20.515-115.527-163.132-96.941c-0.009-0.021,0,0.001-0.008-0.019
						c53.536-39.96,108.126-31.147,146.51-15.039c60.089,25.216,130.437,4.118,165.873-50.57
						c35.78-55.218,43.5-116.537,43.5-116.537S2260.893,1514.927,2001.71,1514.927z"/>
				</g>
				<g style="opacity:0.7;">
					<path style="fill:#FFFFFF;" d="M2074.625,1321.59c-5.859-60.836-31.594-105.382-45.42-125.414
						c-3.557-5.153-11.467-4.06-13.59,1.831c-66.001,183.127-173.514,218.868-176.94,219.93v-0.049
						c3.856-3.807,127.244-127.441,163.034-290.129C2001.71,1127.758,2098.453,1161.126,2074.625,1321.59z"/>
				</g>
				<g>
					<path style="fill:#000072;" d="M2083.481,1336.47c-4.031,1.797-7.366,2.686-11.204,3.457
						c-3.728,0.757-7.544,1.187-11.387,1.396c-7.678,0.327-15.625-0.19-23.162-2.808c-1.575-0.547-2.41-2.266-1.863-3.843
						c0.173-0.498,0.461-0.918,0.825-1.245l0.149-0.137c2.832-2.544,5.469-4.785,8-7.139l7.329-6.909l7.019-6.641
						c2.195-2.129,4.817-4.307,6.58-5.864c7.283-6.426,18.396-5.728,24.819,1.553c6.426,7.28,5.732,18.394-1.55,24.819
						c-1.353,1.191-2.837,2.139-4.397,2.847L2083.481,1336.47z"/>
				</g>
				<g>
					<path style="fill:#000072;" d="M2001.709,1532.227c-8.389,0-15.569-6.016-17.036-14.277
						c-0.745-3.97-20.071-98.984-143.875-82.817c-7.38,0.967-14.519-2.896-17.776-9.565c-3.262-6.675-1.895-14.688,3.389-19.907
						c1.233-1.216,123.611-123.55,158.403-281.631c1.06-4.819,4.131-8.955,8.435-11.372c4.307-2.412,9.436-2.861,14.104-1.265
						c4.241,1.465,98.042,35.654,87.588,183.799c26.504-11.792,66.631-34.204,84.238-67.48c3.367-6.367,10.317-10,17.476-9.072
						c7.146,0.908,12.981,6.152,14.648,13.159c1.367,5.742,32.659,141.621-36.851,229.609
						C2137.327,1508.398,2079.209,1532.227,2001.709,1532.227z M1879.255,1398.901c92.053,4.624,125.027,68.999,135.347,98.472
						c59.8-2.383,104.37-21.631,132.612-57.31c38.557-48.711,39.897-118.496,36.077-161.519
						c-41.147,40.195-100.508,58.662-103.625,59.609c-5.676,1.719-11.841,0.425-16.335-3.447s-6.689-9.78-5.818-15.649
						c15.227-102.534-21.318-147.373-44.463-164.99C1983.037,1264.531,1917.285,1353.94,1879.255,1398.901z"/>
				</g>
			</g>
			<g>
				<path style="fill:#000072;" d="M2429.896,1796.327c-0.27-3.6-2.138-6.879-5.025-8.614
					c-17.459-10.496-35.793-17.633-52.848-22.49c-10.966-3.123-21.538-7.609-31.892-12.655
					c-115.949-56.509-203.431-13.986-245.522,16.659c-7.292,5.309-16.696,5.902-24.506,1.569
					c-48.741-27.043-101.955-15.619-131.914-5.039c-7.346,2.594-15.351,1.314-21.662-3.561
					c-37.52-28.979-127.24-79.391-247.201-21.828c-14.731,7.069-29.666,13.743-45.047,18.88
					c-15.221,5.083-31.214,12.06-46.479,21.644c-2.857,1.793-4.669,5.109-4.879,8.714l-2.025,34.817
					c-0.285,4.904,2.447,9.395,6.699,10.936c7.725,2.799,21.103,9.315,37.429,24.147c0.948,32.153,7.42,68.289,26.287,99.706
					c25.402,42.297,67.722,67.265,125.785,74.211c3.78,0.45,7.508,0.805,11.17,1.062c49.95,3.5,88.152-12.865,117.901-43.4
					c50.303-51.631,51.653-135.766,46.206-177.597c21.5-8.964,76.048-26.34,118.905,5.527
					c-2.01,37.095-1.391,130.097,48.819,185.315c28.866,31.749,68.729,45.513,118.612,41c3.656-0.331,7.378-0.762,11.15-1.288
					c57.936-8.123,99.828-33.945,124.513-76.75c18.334-31.794,24.196-68.056,24.603-100.222
					c16.073-15.161,29.339-21.947,37.016-24.902c4.226-1.627,6.882-6.172,6.514-11.07L2429.896,1796.327z M1873.159,1966.941
					c-23.211,26.431-57.708,37.126-102.606,31.747c-48.188-5.764-82.727-25.514-102.656-58.706
					c-28.018-46.648-21.966-109.266-16.569-139.981c1.377-7.84,6.075-14.454,12.537-18.122
					c122.3-69.417,209.025-13.163,238.534,11.794c4.604,3.894,7.418,9.718,7.81,16.082
					C1912.268,1843.2,1912.39,1922.256,1873.159,1966.941z M2337.473,1948.604c-19.367,33.591-53.567,54.038-101.65,60.779
					c-44.799,6.29-79.471-3.704-103.124-29.659c-39.977-43.881-41.188-122.927-39.691-156.406c0.285-6.371,3-12.251,7.538-16.238
					c29.084-25.552,114.846-83.556,238.295-16.633c6.522,3.536,11.331,10.054,12.84,17.864
					C2357.595,1838.91,2364.701,1901.395,2337.473,1948.604z"/>
			</g>
			<g>
				<g>
					<path style="fill:#CFCFE5;" d="M2778.37,2594.815l-102.23,793.467H1327.28l-33.516-260.221l-68.713-533.246
						c-5.339-41.228,26.793-77.81,68.417-77.81h1416.486C2751.577,2517.006,2783.709,2553.587,2778.37,2594.815z"/>
				</g>
				<g style="opacity:0.3;">
					<path style="fill:#000072;" d="M2778.37,2594.815l-102.23,793.467H1327.28l-33.516-260.221
						c80.083,47.506,329.874,170.053,708.144,120.965c376.49-48.89,645.363-335.757,563.5-732.021h144.545
						C2751.577,2517.006,2783.709,2553.587,2778.37,2594.815z"/>
				</g>
				<g style="opacity:0.7;">
					<path style="fill:#FFFFFF;" d="M2777.07,2570.247c-7.071-30.145-34.063-53.241-67.116-53.241H1293.467
						c-41.624,0-73.756,36.582-68.417,77.81l68.713,533.246l33.516,260.221h38.123l-27.149-210.787l-68.713-533.246
						c-5.339-41.228,26.793-77.81,68.417-77.81h120.715c2.368,19.83,55.022,35.684,119.669,35.684
						c64.647,0,117.301-15.854,119.669-35.684h1056.433C2762.401,2566.44,2770.002,2567.796,2777.07,2570.247z"/>
				</g>
				<g>
					<path style="fill:#000072;" d="M2676.133,3405.605H1327.288c-8.701,0-16.047-6.46-17.161-15.088l-102.261-793.481
						c-3.169-24.595,4.404-49.385,20.781-68.008c16.379-18.623,39.995-29.302,64.795-29.302h1416.536
						c24.8,0,48.416,10.679,64.795,29.302c16.377,18.623,23.95,43.413,20.781,68.008l-102.261,793.481
						C2692.18,3399.146,2684.834,3405.605,2676.133,3405.605z M1342.502,3371.006h1318.416l100.315-778.394
						c1.899-14.731-2.637-29.575-12.446-40.732c-9.81-11.152-23.955-17.554-38.809-17.554H1293.442
						c-14.854,0-28.999,6.401-38.809,17.554c-9.81,11.157-14.346,26.001-12.446,40.732L1342.502,3371.006z"/>
				</g>
			</g>
			<g>
				<g>
					
						<ellipse transform="matrix(0.7071 -0.7071 0.7071 0.7071 -1521.225 2288.3831)" style="fill:#000072;" cx="2001.71" cy="2980.472" rx="103.558" ry="103.558"/>
				</g>
				<g style="opacity:0.3;">
					<path style="fill:#000072;" d="M2001.71,3028.624c-47.583,0-87.569-32.134-99.697-75.854
						c-2.449,8.83-3.861,18.093-3.861,27.703c0,57.194,46.364,103.558,103.558,103.558s103.558-46.364,103.558-103.558
						c0-9.61-1.411-18.873-3.861-27.703C2089.279,2996.49,2049.293,3028.624,2001.71,3028.624z"/>
				</g>
				<g style="opacity:0.7;">
					<path style="fill:#FFFFFF;" d="M2001.71,2920.009c49.8,0,91.36,35.165,101.28,82.011c1.473-6.954,2.278-14.154,2.278-21.547
						c0-57.193-46.364-103.558-103.558-103.558s-103.558,46.365-103.558,103.558c0,7.393,0.805,14.593,2.278,21.547
						C1910.35,2955.174,1951.91,2920.009,2001.71,2920.009z"/>
				</g>
				<g>
					<path style="fill:#000072;" d="M2001.709,3105.576c-68.982,0-125.105-56.123-125.105-125.103
						c0-68.984,56.123-125.107,125.105-125.107c68.984,0,125.107,56.123,125.107,125.107
						C2126.816,3049.453,2070.693,3105.576,2001.709,3105.576z M2001.709,2898.462c-45.22,0-82.009,36.792-82.009,82.012
						s36.79,82.007,82.009,82.007c45.222,0,82.012-36.787,82.012-82.007S2046.931,2898.462,2001.709,2898.462z"/>
				</g>
			</g>
			<g>
				<g>
					<path style="fill:#CFCFE5;" d="M2651.946,3421.672H1351.474c-25.742,0-46.609-20.868-46.609-46.609v0
						c0-25.741,20.868-46.609,46.609-46.609h1300.471c25.741,0,46.609,20.868,46.609,46.609v0
						C2698.555,3400.804,2677.687,3421.672,2651.946,3421.672z"/>
				</g>
				<g style="opacity:0.3;">
					<path style="fill:#000072;" d="M2651.946,3328.453H2441.39c0.032,0.707,0.107,1.403,0.107,2.119
						c0,25.742-20.868,46.609-46.61,46.609H1304.972c1.115,24.751,21.476,44.491,46.502,44.491h1300.471
						c25.742,0,46.609-20.868,46.609-46.609S2677.687,3328.453,2651.946,3328.453z"/>
				</g>
				<g>
					<path style="fill:#000072;" d="M2651.946,3438.97H1351.475c-35.242,0-63.911-28.667-63.911-63.906
						c0-35.244,28.669-63.911,63.911-63.911h1300.471c35.239,0,63.911,28.667,63.911,63.911
						C2715.857,3410.303,2687.185,3438.97,2651.946,3438.97z M1351.475,3345.752c-16.16,0-29.307,13.149-29.307,29.312
						c0,16.157,13.147,29.307,29.307,29.307h1300.471c16.16,0,29.307-13.149,29.307-29.307c0-16.162-13.147-29.312-29.307-29.312
						H1351.475z"/>
				</g>
			</g>
			<g>
				<g>
					<ellipse style="fill:#000072;" cx="2187.167" cy="1909.026" rx="77.111" ry="105.496"/>
				</g>
				<g>
					<ellipse style="fill:#FFFFFF;" cx="2173.249" cy="1923.887" rx="24.931" ry="34.108"/>
				</g>
			</g>
		</g>
		<g>
			<path style="fill:#000072;" d="M992.034,3420.454c42-8.896,83.997-11.26,125.996-12.202c42-1.24,83.997-0.581,125.996,0.093
				l62.998,0.542l62.998,0.034h125.996H2000h503.982h251.992l62.998-0.02c20.999,0.015,42-0.781,62.998-1.147
				c20.999-0.371,42,0.205,62.998,1.655c20.999,1.714,42,4.565,62.998,11.045c3.186,0.981,4.971,4.36,3.987,7.549
				c-0.605,1.963-2.163,3.408-3.987,3.984c-20.999,6.479-42,9.331-62.998,11.045c-20.999,1.45-42,2.031-62.998,1.655
				c-20.999-0.366-42-1.157-62.998-1.147l-62.998-0.015h-251.992H2000h-503.982h-125.996l-62.998,0.029l-62.998,0.542
				c-42,0.679-83.997,1.333-125.996,0.093c-42-0.942-83.997-3.306-125.996-12.202c-3.186-0.674-5.22-3.804-4.546-6.987
				C987.986,3422.651,989.827,3420.923,992.034,3420.454z"/>
		</g>
	</g>
</g>
</svg>
